# xmcd
#
# Track frame offsets:
#	150
#	18272
#	39448
#	54737
#	72345
#	90822
#	110382
#	124827
#	147251
#	172336
#	195907
#	222975
#	244514
#
# Disc length: 3515 seconds
#
# Revision: 0
# Processed by: cddbd v1.5.2PL0 Copyright (c) Steve Scherf et al.
# Submitted via: audiograbber 1.83.01
#
DISCID=b00db90d
DTITLE=Donald Ray Johnson - The best of
DYEAR=1900
DGENRE=
TTITLE0=Donald Ray Johnson - Ain`t no fun to me - 1-
TTITLE1=Donald Ray Johnson - Gone so long -2-
TTITLE2=Donald Ray Johnson - The Blues -3-
TTITLE3=Donald Ray Johnson - Always on my mind -4-
TTITLE4=Donald Ray Johnson - Slow down baby -5-
TTITLE5=Donald Ray Johnson - Here to stay -6-
TTITLE6=Donald Ray Johnson - Me and Jack (Daniels) -7-
TTITLE7=Donald Ray Johnson - Last two dollars -8-
TTITLE8=Donald Ray Johnson - No guitar blues -9-
TTITLE9=Donald Ray Johnson - It ain`t easy being blue -10-
TTITLE10=Donald Ray Johnson - Thrilling you killing me -11-
TTITLE11=Donald Ray Johnson - Working girl blues -12-
TTITLE12=Donald Ray Johnson - It`s time -13-
EXTD=
EXTT0=
EXTT1=
EXTT2=
EXTT3=
EXTT4=
EXTT5=
EXTT6=
EXTT7=
EXTT8=
EXTT9=
EXTT10=
EXTT11=
EXTT12=
PLAYORDER=
